<svg xmlns="http://www.w3.org/2000/svg" viewBox="0 0 280.29 200.26"><defs><style>.cls-1{isolation:isolate;}.cls-2{fill:#222;}.cls-3{fill:#333;}.cls-4{fill:#6f6f6f;}.cls-5{fill:#3f3f3f;}.cls-6{fill:#1c1c1c;}.cls-7{fill:#282727;}.cls-8,.cls-9{fill:#fff;}.cls-14,.cls-9{opacity:0.3;}.cls-9{mix-blend-mode:color-dodge;}.cls-10{fill:#f90;}.cls-11{fill:#fcb953;}.cls-12{fill:#141313;}.cls-13,.cls-14{fill:#454343;}.cls-14{mix-blend-mode:screen;}</style></defs><g class="cls-1"><g id="Layer_2" data-name="Layer 2"><g id="Layer_1-2" data-name="Layer 1"><path class="cls-2" d="M27,174.37c7.22,0,26.77-10.1,86.17-8.09,7.91.26,17.38-.86,26.81-1.51V88.11C95.55,95.06,47.09,115.3,3.59,153-7.83,162.88,18.22,174.37,27,174.37Z"/><path class="cls-2" d="M277,153c-43.5-37.69-92-57.93-136.39-64.88v76.66c9.42.65,18.9,1.77,26.8,1.51,59.4-2,79,8.09,86.18,8.09C262.41,174.37,288.45,162.88,277,153Z"/><path class="cls-3" d="M268.73,84.11C222.52,40.17,109-.21,11.63,84.11.21,94-1.59,155.34,1.09,159.52c3.93,6.15,52.1-26.72,111.5-24.72,8.12.28,17.9-.92,27.59-1.56,9.68.64,19.47,1.84,27.59,1.56,59.4-2,107.57,30.87,111.5,24.72C281.94,155.34,279.68,94.52,268.73,84.11Z"/><circle class="cls-4" cx="140.14" cy="106.97" r="58.13" transform="translate(29.7 244.4) rotate(-88.57)"/><path class="cls-5" d="M140.14,160.14A53.17,53.17,0,1,1,193.31,107,53.23,53.23,0,0,1,140.14,160.14Zm0-103.39A50.23,50.23,0,1,0,190.37,107,50.28,50.28,0,0,0,140.14,56.75Z"/><path class="cls-6" d="M133,120.94c-2.23-7-6.54-12.7-13.47-15.16a24.38,24.38,0,0,0-7.16-1l-15.73,5.72c5.32,3.1,4.19,12,6.79,17.54,3.77,8,18.53,8.37,26,7.08,3-.53.6-2.19,3-4.22C135.8,128,134.39,125.23,133,120.94Z"/><path class="cls-7" d="M118.71,125.21h-12a6.05,6.05,0,0,1,11.41-2.16A5.87,5.87,0,0,1,118.71,125.21Z"/><path class="cls-7" d="M106.68,126.55a6.05,6.05,0,0,0,12,0Z"/><path class="cls-8" d="M114.8,122.66a.36.36,0,0,1-.36.36h-3.5a.36.36,0,0,1-.36-.36h0a.36.36,0,0,1,.36-.36h3.5a.36.36,0,0,1,.36.36Z"/><path class="cls-8" d="M112.69,124.77a.36.36,0,0,1-.36-.36v-3.49a.36.36,0,0,1,.36-.36h0a.36.36,0,0,1,.36.36v3.49a.36.36,0,0,1-.36.36Z"/><path class="cls-8" d="M114.8,128.87a.36.36,0,0,1-.36.36h-3.5a.36.36,0,0,1-.36-.36h0a.36.36,0,0,1,.36-.35h3.5a.36.36,0,0,1,.36.35Z"/><path class="cls-9" d="M118.08,123.05a4,4,0,0,1-5,.88,4.18,4.18,0,0,1-.72-.53A3.24,3.24,0,0,1,112,123a4.16,4.16,0,0,1-.47-.71,4,4,0,0,1-.44-1.82,4.12,4.12,0,0,1,0-.51,6,6,0,0,1,7,3.07Z"/><path class="cls-6" d="M147.27,121.26c2.23-7,6.54-12.7,13.47-15.16a24.37,24.37,0,0,1,7.15-1.06l15.74,5.73c-5.33,3.1-4.19,12-6.79,17.54-3.77,8-18.53,8.37-26,7.08-3-.53-.6-2.19-3-4.22C144.49,128.32,145.9,125.55,147.27,121.26Z"/><path class="cls-7" d="M172.46,125.9a6.14,6.14,0,1,1-6.14-6.14A6.14,6.14,0,0,1,172.46,125.9Z"/><path class="cls-8" d="M164,127.7h-.43v-2.65l-.5,2h-.42l-.51-2v2.65h-.43v-3.59h.64l.51,2.09.5-2.09H164Z"/><path class="cls-8" d="M166.32,124.5v2.8c0,.22-.13.4-.29.4h-1.18c-.16,0-.29-.18-.29-.4v-2.8c0-.21.13-.39.29-.39H166C166.19,124.11,166.32,124.29,166.32,124.5Zm-.5.24h-.76s-.06.05-.06.1V127s0,.09.06.09h.76a.08.08,0,0,0,.07-.09v-2.13S165.86,124.74,165.82,124.74Z"/><path class="cls-8" d="M168.62,124.5v2.8c0,.22-.14.4-.29.4h-1.47v-3.59h1.47C168.48,124.11,168.62,124.29,168.62,124.5Zm-.51.24h-.82v2.32h.82a.08.08,0,0,0,.07-.09v-2.13S168.15,124.74,168.11,124.74Z"/><path class="cls-8" d="M169.59,124.74v.85h.88v.63h-.88v.84h1.32v.64h-1.76v-3.59h1.76v.63Z"/><path class="cls-9" d="M170,123.56a3.11,3.11,0,1,1-3.1-3.11A3.1,3.1,0,0,1,170,123.56Z"/><path class="cls-7" d="M186.46,90.89s-23.78-7-33.32-10.36a37.55,37.55,0,0,0-26,0c-9.54,3.33-33.32,10.36-33.32,10.36l-8,25.67s10.53-6,29.83,1.64c13.12,5.17,11.58,22.12,11,34.44h26.83c-.55-12.32-2.09-29.27,11-34.44,19.3-7.6,29.38-1.48,29.38-1.48Z"/><path class="cls-10" d="M139.86,189.85a66.27,66.27,0,0,1-16.9-2c-6-1.55-9.89-3.72-7.92-5.6,11.51-11,9.87-33.86,9.87-33.86h29.91s-1.65,22.89,9.86,33.86C168.29,185.65,152.12,190.09,139.86,189.85Z"/><path class="cls-11" d="M128,182c-1.26,3.73-2.81,5.29-5,5.78-6-1.55-9.89-3.72-7.92-5.6,11.51-11,9.87-33.86,9.87-33.86h6.59C132,159.21,131.33,172.11,128,182Z"/><path class="cls-11" d="M151.84,182c1.27,3.73,2.81,5.29,5,5.78,6-1.55,9.89-3.72,7.91-5.6-11.51-11-9.86-33.86-9.86-33.86h-6.6C147.77,159.21,148.48,172.11,151.84,182Z"/><path class="cls-12" d="M234.48,66.51A102.38,102.38,0,0,0,220.14,40c-.85-1.14-1.72-2.27-2.62-3.38a97.75,97.75,0,0,0-25-21.86A99.74,99.74,0,0,0,162.3,2.42a101.51,101.51,0,0,0-67.12,8.17l-.83.41A99.87,99.87,0,0,0,60,40h0A97.68,97.68,0,0,0,49.49,57.47a101.53,101.53,0,0,0-6.22,68.27,98.57,98.57,0,0,0,13.66,30.13q1.32,2,2.73,3.84a104.81,104.81,0,0,0,20.86,20.84,93.2,93.2,0,0,0,7.77,5.29,97.74,97.74,0,0,0,20.41,9.38c3,1,6.06,1.83,9.15,2.53a100.79,100.79,0,0,0,26,2.44A98.92,98.92,0,0,0,166,196.81a100.93,100.93,0,0,0,18.45-7,102.22,102.22,0,0,0,21.8-14.52,96.83,96.83,0,0,0,14.56-15.84,99.66,99.66,0,0,0,17.7-40.67,104.51,104.51,0,0,0,1.76-18.69A100.12,100.12,0,0,0,234.48,66.51Zm-9.23,45.15a94.37,94.37,0,0,1-4.39,17.71q-.72,2-1.53,4a93.8,93.8,0,0,1-7,13.17c-1.28,2-2.66,4-4.09,5.87l-.64.82c-.39.49-.79,1-1.19,1.45l-.19.23c-.81,1-1.64,1.9-2.49,2.83a93,93,0,0,1-11.22,10.42l-.53.4c-.5.37-1,.74-1.51,1.1-1.11.79-2.23,1.55-3.37,2.3q-3.3,2.15-6.77,4c-.68.36-1.36.72-2.05,1.06-1.61.81-3.23,1.57-4.88,2.28A93.6,93.6,0,0,1,161,183.37q-4.64,1.17-9.36,1.87l-2,.23a95.78,95.78,0,0,1-21.07-.23q-3.48-.51-6.9-1.28a93.32,93.32,0,0,1-9-2.5q-2.94-1-5.81-2.14a93.91,93.91,0,0,1-11.61-6h0l-1.56-1c-2-1.29-4-2.66-5.87-4.09l-.82-.64c-.49-.39-1-.79-1.45-1.19-1-.87-2.06-1.76-3.06-2.68a91.7,91.7,0,0,1-8.62-9c-.61-.73-1.21-1.47-1.8-2.21l-.4-.53-1.11-1.52c-.79-1.1-1.55-2.23-2.29-3.36q-2.14-3.3-4-6.77c-1.21-2.26-2.32-4.58-3.34-6.93-.58-1.42-1.12-2.85-1.62-4.3A93.17,93.17,0,0,1,55,111.67a95.21,95.21,0,0,1,0-23.13A94.66,94.66,0,0,1,58.57,73.2c.7-2.15,1.47-4.28,2.33-6.38a93.8,93.8,0,0,1,7-13.17q1.68-2.62,3.53-5.12l.56-.75.64-.82c.39-.49.79-1,1.19-1.45.87-1,1.76-2.06,2.68-3.06A93.85,93.85,0,0,1,87.72,32l.53-.39,1.52-1.11c1.1-.79,2.22-1.55,3.36-2.29q3.3-2.14,6.77-4c.7-.38,1.41-.74,2.12-1.1,1.58-.79,3.19-1.54,4.81-2.24A93.52,93.52,0,0,1,128.56,15a95,95,0,0,1,23.11,0,93.52,93.52,0,0,1,21.73,5.92,95.85,95.85,0,0,1,11.39,5.89c.6.37,1.19.73,1.78,1.11,2,1.28,4,2.66,5.87,4.09l.82.64c.49.39,1,.79,1.45,1.19,1,.87,2.06,1.76,3.06,2.68a93,93,0,0,1,10.42,11.22l.39.51h0l1.11,1.52c.79,1.11,1.55,2.23,2.29,3.37q2.14,3.3,4,6.77c1.21,2.26,2.32,4.58,3.34,6.93.76,1.86,1.45,3.74,2.09,5.65h0a93.25,93.25,0,0,1,3.83,16.07,93.16,93.16,0,0,1,0,23.12Z"/><path class="cls-13" d="M216,40.33l-.09-.11A96.58,96.58,0,0,0,45.32,118.65a95.91,95.91,0,0,0,19.58,42A96.57,96.57,0,0,0,216,40.33Zm17,64.9a93.41,93.41,0,0,1-20.8,53.7q-.34.44-.72.87a92.88,92.88,0,0,1-142.71-.12A94.44,94.44,0,0,1,55,137.7a91.35,91.35,0,0,1-7.55-29.6A94.33,94.33,0,0,1,48,87.6h0A93,93,0,0,1,203.64,32.17,90.94,90.94,0,0,1,212.69,42,93.88,93.88,0,0,1,232.22,87c.15,1,.28,2.07.39,3.1h0a95.4,95.4,0,0,1,.51,10c0,1.71-.05,3.41-.15,5.11Z"/><path class="cls-10" d="M73.84,154.55a10.82,10.82,0,0,1-2,2.82,10.65,10.65,0,0,1-2.38,1.8l-.69.35a11,11,0,0,1-3.84,1l-.67,0a11.64,11.64,0,0,1-4.57-1q-1.41-1.87-2.73-3.83a98.78,98.78,0,0,1-13.66-30.13A101.55,101.55,0,0,1,49.49,57.3,98,98,0,0,1,60,39.79h0a10.45,10.45,0,0,1,6.33,1.39,10.42,10.42,0,0,1,1.09.74,10.57,10.57,0,0,1,1.84,1.82,11.13,11.13,0,0,1,2.15,4.62C70.2,50,69,51.73,67.9,53.48a93.8,93.8,0,0,0-7,13.17c-.86,2.1-1.63,4.23-2.33,6.38a23.63,23.63,0,0,0,1.78,6.63c-.66,2.69-1.2,5.4-1.61,8.15-.2,1.63-.35,3.28-.45,4.93a98.85,98.85,0,0,0,.46,18,81.17,81.17,0,0,0,3.58,14.53c-.52.53-1,1.06-1.48,1.6a23,23,0,0,0-1.57,2q.75,2.16,1.62,4.29,1.53,3.54,3.34,6.93t4,6.77c.74,1.14,1.5,2.26,2.29,3.37l1.11,1.52c.13.17.27.34.4.52Q72.92,153.46,73.84,154.55Z"/><path class="cls-10" d="M94.75,115.45c-6.58,1.59-14.65,1.68-21.62,3.48a24.26,24.26,0,0,0-10.8,6.38,26.28,26.28,0,0,0-3,3.62,20.66,20.66,0,0,0-1.73,2.9,66.24,66.24,0,0,1-10.09-23.89,43.61,43.61,0,0,1,.5-20.5h0a32.59,32.59,0,0,1,4.82-10l1.64-2.23,4.91-6.65A6.86,6.86,0,0,0,58.57,73a23.63,23.63,0,0,0,1.78,6.63c1.72,4.19,4.45,8.21,7.12,9.86,6.69,4.1,19,2.11,26.62.89,0,.8.11,1.57.16,2.31C94.81,100.94,95.32,106.76,94.75,115.45Z"/><path class="cls-10" d="M240.27,99.94a104.68,104.68,0,0,1-1.76,18.69,99.62,99.62,0,0,1-17.7,40.66,11.54,11.54,0,0,1-5.09,1.23h-.42a11,11,0,0,1-3.85-.88,10.58,10.58,0,0,1-2.41-1.45,9.94,9.94,0,0,1-.91-.81,10.62,10.62,0,0,1-1.91-2.61l.19-.23c.4-.48.8-1,1.19-1.45l.64-.81c1.43-1.91,2.81-3.86,4.09-5.88a93.8,93.8,0,0,0,7-13.17q.81-2,1.53-4c-.39-.58-.83-1.16-1.3-1.74s-1.25-1.45-1.95-2.15a81.28,81.28,0,0,0,3.58-14.52,98.9,98.9,0,0,0,.63-14.8c-.09-2.75-.3-5.51-.62-8.24s-.95-5.42-1.6-8.09a22.61,22.61,0,0,0,1.82-7.36h0c-.64-1.9-1.33-3.78-2.09-5.65-1-2.35-2.13-4.67-3.34-6.93s-2.57-4.57-4-6.77c-.74-1.13-1.5-2.26-2.29-3.36l-1.11-1.52h0a10.89,10.89,0,0,1,3.79-6,3.92,3.92,0,0,1,.32-.25,10,10,0,0,1,.9-.6,10.94,10.94,0,0,1,2.37-1,10.43,10.43,0,0,1,4.18-.34,102.21,102.21,0,0,1,14.34,26.53A100.08,100.08,0,0,1,240.27,99.94Z"/><path class="cls-10" d="M233,105.06h0a65.34,65.34,0,0,1-10.58,26.77,19.29,19.29,0,0,0-1.53-2.63,27,27,0,0,0-3.25-3.89,24.23,24.23,0,0,0-10.79-6.38c-7-1.8-14.89-1.41-21.46-3-.63-9.43-.12-16,.48-25.36,0,0,0-.1,0-.15,7.65,1.22,19.94,3.21,26.62-.89,2.68-1.65,5.4-5.67,7.13-9.86a22.61,22.61,0,0,0,1.82-7.36h0a6.19,6.19,0,0,0-.81-3.72l6.55,8.88c.54.75,1,1.51,1.5,2.29a33.49,33.49,0,0,1,4,10.19h0A43.47,43.47,0,0,1,233,105.06Z"/><path class="cls-10" d="M139.13,120.22a16.1,16.1,0,1,1,16.1-16.09A16.11,16.11,0,0,1,139.13,120.22Zm0-30a13.95,13.95,0,1,0,14,13.95A14,14,0,0,0,139.13,90.18Z"/><path class="cls-10" d="M145.05,97.81v2.85h-2.91V99.32a.44.44,0,0,0-.46-.42h-5.09a.43.43,0,0,0-.46.42v9.62a.43.43,0,0,0,.46.41h5.09a.44.44,0,0,0,.46-.41v-3.38h-3v-2.87h5.92v7.75a1.88,1.88,0,0,1-1.94,1.78h-8a1.88,1.88,0,0,1-1.94-1.78V97.81A1.88,1.88,0,0,1,135.15,96h8A1.88,1.88,0,0,1,145.05,97.81Z"/><path class="cls-11" d="M228.66,79.75a32.35,32.35,0,0,1-.83,5.72,19.56,19.56,0,0,1-6,10.52c-6.31,5.49-16.25,5.75-26.62.56a52.5,52.5,0,0,1-9.36-6s0-.1,0-.15c7.65,1.22,19.94,3.21,26.62-.89,2.68-1.65,5.4-5.67,7.13-9.86a22.61,22.61,0,0,0,1.82-7.36h0c-.64-1.9-1.33-3.78-2.09-5.65-1-2.35-2.13-4.67-3.34-6.93s-2.57-4.57-4-6.77c-.74-1.13-1.5-2.26-2.29-3.36l-1.11-1.52h0a10.89,10.89,0,0,1,3.79-6,95.51,95.51,0,0,1,7.06,10.19C225.45,62,229.14,70.55,228.66,79.75Z"/><path class="cls-11" d="M94.25,92.72a52.09,52.09,0,0,1-6.46,3.83c-12.13,6.07-23.68,4.68-29.5-3.81a21.59,21.59,0,0,1-3.13-7.27,31.48,31.48,0,0,1-.74-10.24c.71-7.54,4.12-14.84,9.14-23,1.76-2.86,3.65-5.74,5.72-8.48a11.13,11.13,0,0,1,2.15,4.62C70.2,50,69,51.73,67.9,53.48a93.8,93.8,0,0,0-7,13.17c-.86,2.1-1.63,4.23-2.33,6.38a23.63,23.63,0,0,0,1.78,6.63c1.72,4.19,4.45,8.21,7.12,9.86,6.69,4.1,19,2.11,26.62.89C94.14,91.21,94.2,92,94.25,92.72Z"/><path class="cls-11" d="M73.84,154.55a10.82,10.82,0,0,1-2,2.82,10.65,10.65,0,0,1-2.38,1.8c-15.68-22.57-25.14-56-19.19-77A148.21,148.21,0,0,0,53.13,104a88.22,88.22,0,0,0,6.31,20c.46,1,.93,1.93,1.41,2.87a23,23,0,0,0-1.57,2q.75,2.16,1.62,4.29,1.53,3.54,3.34,6.93t4,6.77c.74,1.14,1.5,2.26,2.29,3.37l1.11,1.52c.13.17.27.34.4.52Q72.92,153.46,73.84,154.55Z"/><path class="cls-11" d="M209,158.18a9.94,9.94,0,0,1-.91-.81,10.62,10.62,0,0,1-1.91-2.61l.19-.23c.4-.48.8-1,1.19-1.45l.64-.81c1.43-1.91,2.81-3.86,4.09-5.88a93.8,93.8,0,0,0,7-13.17q.81-2,1.53-4c-.39-.58-.83-1.16-1.3-1.74l.36-.6A89.07,89.07,0,0,0,228,107.47,148.5,148.5,0,0,0,232.85,86C236.71,106.55,225.48,137.13,209,158.18Z"/><path class="cls-14" d="M192.52,14.74l-7.73,12a95.85,95.85,0,0,0-11.39-5.89A93.52,93.52,0,0,0,151.67,15a95,95,0,0,0-23.11,0,93.52,93.52,0,0,0-21.73,5.92c-1.62.7-3.23,1.45-4.81,2.24L95.18,10.59A101.51,101.51,0,0,1,162.3,2.42,99.74,99.74,0,0,1,192.52,14.74Z"/><path class="cls-14" d="M112.64,181.46c-1.25,4.22-2.8,9.47-3.94,13.76a97.74,97.74,0,0,1-20.41-9.38c2.23-4,4.87-8.75,6.93-12.55a93.91,93.91,0,0,0,11.61,6Q109.7,180.49,112.64,181.46Z"/><path class="cls-14" d="M154.27,199.24a98.65,98.65,0,0,1-10.46.95,100.79,100.79,0,0,1-26-2.44c1.23-4.59,2.3-9.22,3.09-13.88l.72.09q3.42.76,6.9,1.28a95.78,95.78,0,0,0,21.07.23Q151.87,192.37,154.27,199.24Z"/><path class="cls-14" d="M184.45,189.82a100.93,100.93,0,0,1-18.45,7c-1.64-4.48-3.32-8.95-5-13.44a93.6,93.6,0,0,0,12.37-4.05c1.65-.71,3.27-1.47,4.88-2.28Z"/><path class="cls-6" d="M116.52,101.56a8.85,8.85,0,1,1-8.85-8.85A8.85,8.85,0,0,1,116.52,101.56Z"/><path class="cls-13" d="M114.84,101.56a7.17,7.17,0,1,1-7.17-7.18A7.17,7.17,0,0,1,114.84,101.56Z"/><polygon class="cls-6" points="107.65 102.7 113.66 103.04 113.66 99.95 107.65 100.43 107.65 102.7"/><polygon class="cls-6" points="107.68 100.42 101.68 100.07 101.68 103.16 107.68 102.68 107.68 100.42"/><polygon class="cls-6" points="108.81 101.57 109.16 95.56 106.06 95.56 106.54 101.57 108.81 101.57"/><polygon class="cls-6" points="106.53 101.54 106.18 107.55 109.27 107.55 108.8 101.54 106.53 101.54"/><path class="cls-6" d="M181.74,101.43a3.9,3.9,0,1,1-3.89-3.89A3.89,3.89,0,0,1,181.74,101.43Z"/><path class="cls-8" d="M180,101.43a2.16,2.16,0,1,1-2.15-2.15,2.18,2.18,0,0,1,2.15,2.15c0,.29.47.29.46,0a2.61,2.61,0,1,0-2.61,2.61,2.65,2.65,0,0,0,2.61-2.61A.23.23,0,0,0,180,101.43Z"/><path class="cls-9" d="M180.76,100.12a2,2,0,1,1-2-2A2,2,0,0,1,180.76,100.12Z"/><path class="cls-6" d="M165.72,101.43a3.89,3.89,0,1,1-3.89-3.89A3.89,3.89,0,0,1,165.72,101.43Z"/><path class="cls-8" d="M163.86,102.22c-.06,1.5-1.78,1.22-2.81,1.22-1.5,0-1.22-1.82-1.22-2.81,0-1.5,1.83-1.22,2.82-1.22,1.49,0,1.21,1.82,1.21,2.81a.23.23,0,0,0,.46,0v-1.56A1.68,1.68,0,0,0,162.89,99a12.64,12.64,0,0,0-1.74,0,1.73,1.73,0,0,0-1.72,1.26,6.44,6.44,0,0,0-.05,1.81,1.76,1.76,0,0,0,1,1.75,5.32,5.32,0,0,0,1.91.13,1.89,1.89,0,0,0,1.8-.86,1.7,1.7,0,0,0,.21-.82C164.33,101.93,163.88,101.93,163.86,102.22Z"/><path class="cls-9" d="M164.63,100.15a2,2,0,1,1-2-2A2,2,0,0,1,164.63,100.15Z"/><path class="cls-6" d="M173.73,108.69a3.89,3.89,0,1,1-3.89-3.89A3.89,3.89,0,0,1,173.73,108.69Z"/><path class="cls-8" d="M167.66,106.8c1.35,1.36,2.71,2.71,4.07,4.07a.21.21,0,0,0,.29-.29c-1.36-1.36-2.71-2.72-4.07-4.07a.21.21,0,0,0-.29.29Z"/><path class="cls-8" d="M171.73,106.51q-2,2-4.07,4.07a.21.21,0,0,0,.29.29L172,106.8a.21.21,0,0,0-.29-.29Z"/><path class="cls-9" d="M172.47,107.5a2,2,0,1,1-2-2A2,2,0,0,1,172.47,107.5Z"/><path class="cls-6" d="M173.73,94.17a3.89,3.89,0,1,1-3.89-3.89A3.89,3.89,0,0,1,173.73,94.17Z"/><path class="cls-8" d="M172.52,95,170,92a.22.22,0,0,0-.32,0l-2.52,3a.23.23,0,0,0,.16.39h5a.23.23,0,0,0,0-.46h-5l.16.39,2.52-3h-.32l2.52,3C172.39,95.52,172.71,95.19,172.52,95Z"/><path class="cls-9" d="M172.27,92.84a2,2,0,1,1-2-2A2,2,0,0,1,172.27,92.84Z"/></g></g></g></svg>