<?xml version="1.0" standalone="no"?>
<!DOCTYPE svg PUBLIC "-//W3C//DTD SVG 20010904//EN"
 "http://www.w3.org/TR/2001/REC-SVG-20010904/DTD/svg10.dtd">
<svg version="1.0" xmlns="http://www.w3.org/2000/svg"
 width="512.000000pt" height="512.000000pt" viewBox="0 0 512.000000 512.000000"
 preserveAspectRatio="xMidYMid meet">

<g transform="translate(0.000000,512.000000) scale(0.100000,-0.100000)"
fill="#000000" stroke="none">
<path d="M2334 4920 c-1098 -115 -1959 -938 -2120 -2025 -25 -168 -25 -505 0
-670 23 -150 74 -352 121 -481 83 -224 235 -492 386 -679 311 -385 766 -676
1253 -800 215 -54 342 -69 586 -69 246 0 376 15 586 69 814 209 1457 832 1690
1637 19 68 47 188 61 268 23 127 26 174 27 375 1 259 -13 377 -69 600 -232
920 -1014 1624 -1955 1760 -132 19 -447 28 -566 15z m581 -159 c477 -81 886
-291 1220 -626 401 -400 629 -921 652 -1490 25 -617 -215 -1222 -658 -1665
-435 -434 -1043 -671 -1654 -647 -564 23 -1081 248 -1480 642 -293 290 -488
627 -590 1020 -57 217 -70 323 -70 565 0 242 13 348 70 566 202 776 812 1387
1588 1589 117 30 263 56 382 69 101 10 424 -3 540 -23z"/>
<path d="M2395 4563 c-544 -47 -1050 -315 -1395 -738 -285 -350 -450 -813
-450 -1265 0 -452 165 -915 451 -1266 132 -162 354 -355 524 -456 1021 -606
2329 -214 2845 854 267 553 265 1189 -5 1746 -305 629 -909 1049 -1614 1121
-96 10 -265 12 -356 4z m95 -266 c0 -157 8 -177 70 -177 62 0 70 20 70 178 l0
134 68 -7 c325 -32 590 -118 843 -275 86 -53 188 -129 250 -185 l41 -37 -96
-97 c-104 -104 -113 -126 -74 -168 40 -42 64 -32 170 74 l97 97 21 -25 c290
-338 435 -677 474 -1111 l7 -68 -133 0 c-158 0 -178 -8 -178 -70 0 -62 20 -70
178 -70 l133 0 -7 -67 c-39 -435 -184 -774 -474 -1112 l-21 -25 -97 97 c-105
105 -127 115 -169 75 -42 -40 -32 -64 74 -170 l97 -97 -25 -21 c-338 -290
-671 -432 -1111 -475 l-68 -7 0 134 c0 158 -8 178 -70 178 -62 0 -70 -20 -70
-177 0 -100 -3 -133 -12 -133 -7 0 -53 5 -103 10 -356 40 -682 169 -950 378
-50 38 -100 80 -112 94 l-23 24 95 94 c103 102 113 125 73 167 -40 42 -64 32
-170 -74 l-97 -97 -21 25 c-290 338 -432 671 -475 1112 l-7 67 134 0 c158 0
178 8 178 70 0 62 -20 70 -178 70 l-134 0 7 68 c43 440 185 773 475 1111 l21
25 97 -97 c105 -105 127 -115 169 -75 42 40 32 65 -72 168 l-95 94 23 24 c75
82 308 237 464 309 202 92 479 162 686 172 l27 1 0 -133z"/>
<path d="M2395 3675 l-25 -24 0 -508 0 -508 -255 -255 c-220 -220 -255 -259
-255 -285 0 -24 18 -48 102 -132 85 -86 108 -103 133 -103 27 0 70 40 343 313
l312 313 0 582 0 583 -25 24 c-23 24 -29 25 -165 25 -136 0 -142 -1 -165 -25z
m215 -628 l0 -512 -253 -253 c-138 -138 -257 -252 -263 -252 -13 0 -64 52 -64
66 0 5 108 117 240 249 l240 240 0 487 0 488 50 0 50 0 0 -513z"/>
</g>
</svg>
