<?xml version="1.0" standalone="no"?>
<!DOCTYPE svg PUBLIC "-//W3C//DTD SVG 20010904//EN"
 "http://www.w3.org/TR/2001/REC-SVG-20010904/DTD/svg10.dtd">
<svg version="1.0" xmlns="http://www.w3.org/2000/svg"
 width="512.000000pt" height="512.000000pt" viewBox="0 0 512.000000 512.000000"
 preserveAspectRatio="xMidYMid meet">
<metadata>
Created by potrace 1.16, written by Peter Selinger 2001-2019
</metadata>
<g transform="translate(0.000000,512.000000) scale(0.100000,-0.100000)"
fill="#000000" stroke="none">
<path d="M3145 4909 c-308 -75 -556 -324 -635 -636 l-11 -43 -784 -2 c-716 -3
-786 -4 -801 -20 -12 -12 -106 -508 -370 -1964 -195 -1072 -354 -1965 -354
-1985 0 -22 7 -42 18 -52 17 -16 195 -17 2354 -17 2249 0 2336 1 2351 18 10
10 17 35 17 55 0 40 -687 3830 -719 3969 -45 194 -117 326 -246 453 -120 118
-264 196 -425 230 -103 22 -294 19 -395 -6z m412 -154 c94 -27 207 -92 283
-162 126 -117 205 -267 230 -441 21 -142 -13 -359 -87 -557 -96 -260 -323
-608 -551 -847 l-77 -81 -83 89 c-317 339 -547 747 -613 1086 -23 121 -25 296
-3 388 33 143 131 297 249 393 64 52 192 118 265 137 111 30 275 27 387 -5z
m-1064 -792 c20 -388 252 -853 645 -1288 143 -159 174 -185 221 -185 36 0 45
7 147 113 290 299 513 639 628 958 32 88 33 91 39 58 4 -19 137 -754 297
-1634 159 -880 293 -1612 296 -1627 l6 -28 -2212 0 -2212 0 5 23 c3 12 155
843 336 1847 182 1004 334 1837 337 1853 l6 27 727 0 728 0 6 -117z"/>
<path d="M3189 4546 c-155 -55 -260 -160 -316 -316 -30 -87 -32 -229 -3 -323
72 -233 314 -383 559 -348 277 40 471 298 432 576 -27 194 -165 358 -349 415
-93 29 -235 27 -323 -4z m326 -160 c59 -29 133 -103 163 -162 108 -212 -26
-471 -266 -515 -114 -21 -235 23 -322 118 -70 76 -93 144 -88 253 6 105 31
164 103 235 110 111 271 138 410 71z"/>
<path d="M1234 3860 c-12 -5 -25 -14 -29 -20 -9 -14 -75 -376 -75 -412 0 -38
32 -68 73 -68 61 0 66 12 107 238 l22 122 183 0 c204 0 215 4 215 71 0 74 -18
79 -267 78 -114 0 -218 -4 -229 -9z"/>
<path d="M3306 2321 c-22 -24 -59 -166 -51 -192 11 -33 35 -49 75 -49 48 0 62
18 84 105 21 79 20 111 -4 135 -26 26 -81 26 -104 1z"/>
<path d="M4125 2158 c-28 -16 -35 -28 -35 -63 0 -16 36 -234 82 -483 64 -354
86 -457 101 -473 27 -29 84 -23 110 13 l21 28 -83 457 c-45 252 -87 471 -93
486 -17 44 -61 59 -103 35z"/>
<path d="M3025 1895 c-22 -14 -76 -39 -120 -56 -44 -17 -86 -36 -92 -41 -18
-15 -16 -83 3 -102 26 -27 58 -28 125 -6 78 26 191 85 215 111 23 25 22 73 -1
99 -25 28 -80 25 -130 -5z"/>
<path d="M2310 1735 c-58 -7 -106 -13 -107 -14 -37 -22 -44 -90 -13 -121 24
-24 56 -25 224 -6 103 12 123 17 138 36 24 29 23 71 -2 98 -24 26 -71 27 -240
7z"/>
<path d="M1810 1678 c-77 -16 -239 -69 -249 -82 -23 -27 -23 -70 -1 -99 26
-33 63 -35 135 -8 28 10 85 26 128 36 58 13 82 23 97 42 23 29 24 42 9 76 -10
22 -49 49 -67 46 -4 -1 -27 -5 -52 -11z"/>
<path d="M1214 1376 c-28 -25 -76 -76 -107 -114 -46 -55 -57 -76 -57 -105 0
-84 89 -101 145 -28 11 14 54 63 97 108 87 91 97 122 55 161 -37 35 -75 28
-133 -22z"/>
<path d="M888 890 c-18 -11 -78 -148 -78 -180 0 -29 44 -70 74 -70 38 0 71 38
100 112 31 80 32 88 5 122 -22 27 -68 35 -101 16z"/>
</g>
</svg>
