<?xml version="1.0" standalone="no"?>
<!DOCTYPE svg PUBLIC "-//W3C//DTD SVG 20010904//EN"
 "http://www.w3.org/TR/2001/REC-SVG-20010904/DTD/svg10.dtd">
<svg version="1.0" xmlns="http://www.w3.org/2000/svg"
 width="512.000000pt" height="512.000000pt" viewBox="0 0 512.000000 512.000000"
 preserveAspectRatio="xMidYMid meet">
<metadata>
Created by potrace 1.16, written by Peter Selinger 2001-2019
</metadata>
<g transform="translate(0.000000,512.000000) scale(0.100000,-0.100000)"
fill="#000000" stroke="none">
<path d="M1156 4908 c-14 -19 -16 -70 -16 -350 l0 -328 -275 0 -276 0 -24 -25
-25 -24 0 -1973 c0 -1770 2 -1976 16 -1996 l15 -22 1689 0 1689 0 15 22 c14
19 16 70 16 350 l0 328 275 0 276 0 24 25 25 24 0 1973 c0 1770 -2 1976 -16
1996 l-15 22 -1689 0 -1689 0 -15 -22z m3274 -1993 l0 -1875 -225 0 -225 0 0
1574 0 1575 -26 20 -27 21 -1318 0 -1319 0 0 280 0 280 1570 0 1570 0 0 -1875z
m-600 -710 l0 -1875 -1570 0 -1570 0 0 1875 0 1875 1570 0 1570 0 0 -1875z"/>
<path d="M2512 3704 c-29 -20 -31 -85 -2 -114 19 -19 33 -20 475 -20 442 0
456 1 475 20 31 31 30 85 -2 113 -19 16 -56 17 -472 17 -392 0 -454 -2 -474
-16z"/>
<path d="M1060 2980 c-12 -12 -20 -33 -20 -55 0 -22 8 -43 20 -55 20 -20 33
-20 1200 -20 1167 0 1180 0 1200 20 31 31 30 85 -2 113 -19 16 -91 17 -1199
17 -1166 0 -1179 0 -1199 -20z"/>
<path d="M1060 2620 c-12 -12 -20 -33 -20 -55 0 -22 8 -43 20 -55 20 -20 33
-20 1200 -20 1167 0 1180 0 1200 20 31 31 30 85 -2 113 -19 16 -91 17 -1199
17 -1166 0 -1179 0 -1199 -20z"/>
<path d="M1060 2260 c-12 -12 -20 -33 -20 -55 0 -22 8 -43 20 -55 20 -20 33
-20 1200 -20 1167 0 1180 0 1200 20 31 31 30 85 -2 113 -19 16 -91 17 -1199
17 -1166 0 -1179 0 -1199 -20z"/>
<path d="M1060 1900 c-12 -12 -20 -33 -20 -55 0 -22 8 -43 20 -55 20 -20 33
-20 1200 -20 1167 0 1180 0 1200 20 31 31 30 85 -2 113 -19 16 -91 17 -1199
17 -1166 0 -1179 0 -1199 -20z"/>
<path d="M1060 1540 c-12 -12 -20 -33 -20 -55 0 -22 8 -43 20 -55 20 -20 33
-20 1200 -20 1167 0 1180 0 1200 20 31 31 30 85 -2 113 -19 16 -91 17 -1199
17 -1166 0 -1179 0 -1199 -20z"/>
<path d="M1060 1180 c-12 -12 -20 -33 -20 -55 0 -22 8 -43 20 -55 20 -20 33
-20 1200 -20 1167 0 1180 0 1200 20 31 31 30 85 -2 113 -19 16 -91 17 -1199
17 -1166 0 -1179 0 -1199 -20z"/>
<path d="M1490 820 c-20 -20 -27 -74 -12 -96 22 -33 48 -34 791 -34 728 0 741
0 761 20 13 13 20 33 20 59 0 75 47 71 -792 71 -735 0 -748 0 -768 -20z"/>
</g>
</svg>
